# xmcd
#
# Track frame offsets: 
#        150
#        17615
#        31487
#        53335
#        76775
#        96257
#        113450
#        126230
#        142800
#        158737
#        170025
#        185215
#        202722
#        202800
#
# Disc length: 2891 seconds
#
# Revision: 14
# Processed by: cddbd v1.5.2PL0 Copyright (c) Steve Scherf et al.
# Submitted via: ExactAudioCopy v1.1
#
DISCID=a70b490e
DTITLE=Dixie Chicks - Fly
DYEAR=1999
DGENRE=Country
TTITLE0=Ready To Run
TTITLE1=If I Fall You're Going Down With Me
TTITLE2=Cowboy Take Me Away
TTITLE3=Cold Day In July
TTITLE4=Goodbye Earl
TTITLE5=Hello Mr. Heartache
TTITLE6=Don't Waste Your Heart
TTITLE7=Sin Wagon
TTITLE8=Without You
TTITLE9=Some Days You Gotta Dance
TTITLE10=Hole In My Head
TTITLE11=Heartbreak Town
TTITLE12=Ain't No Thang But A Chickin' Wang
TTITLE13=Let Him Fly
EXTD=
EXTT0=
EXTT1=
EXTT2=
EXTT3=
EXTT4=
EXTT5=
EXTT6=
EXTT7=
EXTT8=
EXTT9=
EXTT10=
EXTT11=
EXTT12=
EXTT13=
PLAYORDER=
